<svg xmlns="http://www.w3.org/2000/svg" viewBox="0 0 64 64">
  <rect width="64" height="64" rx="16" fill="#101522"/>
  <path d="M42.5 41.4c-2.9 2.7-6.5 4.1-10.8 4.1-4.2 0-7.7-1.3-10.4-4-2.8-2.7-4.1-6.1-4.1-10.2 0-4.1 1.4-7.5 4.2-10.2 2.8-2.7 6.3-4.1 10.5-4.1 4.1 0 7.6 1.3 10.4 3.9l-4.4 5.1c-1.6-1.5-3.5-2.3-5.8-2.3-2.2 0-4 .7-5.4 2.1-1.4 1.4-2.1 3.2-2.1 5.5s.7 4.1 2.1 5.5c1.4 1.4 3.3 2.1 5.6 2.1 2.5 0 4.5-.8 6-2.5l4.2 5z" fill="#fff"/>
  <path d="M13 52h38" stroke="#60e2bd" stroke-width="4" stroke-linecap="round"/>
</svg>
